<svg width="64" height="64" viewBox="0 0 64 64" fill="none" xmlns="http://www.w3.org/2000/svg">
<g clip-path="url(#clip0_261_39588)">
<path d="M32 64C49.6731 64 64 49.6731 64 32C64 14.3269 49.6731 0 32 0C14.3269 0 0 14.3269 0 32C0 49.6731 14.3269 64 32 64Z" fill="#E84142"/>
<path d="M43.29 32.832C44.4036 30.912 46.1828 30.912 47.2964 32.832L54.1956 44.9536C55.3092 46.8736 54.4004 48.4352 52.186 48.4352H38.2724C36.0836 48.4352 35.1748 46.8736 36.2628 44.9536L43.29 32.832ZM29.9396 9.49762C31.0532 7.57762 32.8068 7.57762 33.9204 9.49762L35.4564 12.2752L39.0788 18.6496C39.962 20.4672 39.962 22.6048 39.0788 24.4224L26.906 45.5168C25.7924 47.232 23.962 48.32 21.914 48.4352H11.8148C9.60036 48.4352 8.69156 46.8992 9.80516 44.9536L29.9396 9.49762Z" fill="white"/>
</g>
<defs>
<clipPath id="clip0_261_39588">
<rect width="64" height="64" fill="white"/>
</clipPath>
</defs>
</svg>
