<svg width="64" height="64" viewBox="0 0 64 64" fill="none" xmlns="http://www.w3.org/2000/svg">
<g clip-path="url(#clip0_261_39629)">
<circle cx="32" cy="32" r="32" fill="#EDF0F4"/>
<path d="M22.5855 35C23.8207 35 25.0259 34.5882 26 33.8348L18.1667 26C16.2787 28.4408 16.7306 31.9565 19.171 33.8449C20.1552 34.5882 21.3503 35 22.5855 35Z" fill="#00193C"/>
<path d="M47 29.4145C47 28.1793 46.5882 26.9741 45.8348 26L38 33.8333C40.4408 35.7213 43.9464 35.2694 45.8348 32.829C46.5882 31.8549 47 30.6497 47 29.4145Z" fill="#00193C"/>
<path d="M50.8233 21L47.2766 24.5042C50.1345 27.8864 49.6822 32.9243 46.2588 35.7479C43.257 38.2262 38.8981 38.2262 35.8962 35.7479L32 39.5974L28.114 35.7581C24.6906 38.5817 19.5916 38.1348 16.7336 34.7525C14.2252 31.7867 14.2252 27.4801 16.7336 24.5143L14.914 22.7165L13.1869 21C11.1 24.3924 10 28.2927 10 32.2641C10 44.2696 19.8486 54 32 54C44.1513 54 53.9999 44.2696 53.9999 32.2641C54.0102 28.2927 52.8999 24.3924 50.8233 21Z" fill="#00193C"/>
<path d="M47.4982 16.7936C39.3386 8.03075 25.7827 7.70278 17.2226 16.0556C16.9723 16.3016 16.732 16.5476 16.5018 16.7936C15.9711 17.3675 15.4706 17.9619 15 18.5871L32 36L49 18.5871C48.5395 17.9619 48.0289 17.3675 47.4982 16.7936ZM32 12.8682C37.0059 12.8682 41.6714 14.8463 45.1755 18.4539L32 31.9414L18.8245 18.4539C22.3286 14.8463 26.9941 12.8682 32 12.8682Z" fill="#00193C"/>
</g>
<defs>
<clipPath id="clip0_261_39629">
<rect width="64" height="64" fill="white"/>
</clipPath>
</defs>
</svg>
