<svg width="64" height="64" viewBox="0 0 64 64" fill="none" xmlns="http://www.w3.org/2000/svg">
<g clip-path="url(#clip0_261_39782)">
<path d="M32 64C49.6731 64 64 49.6731 64 32C64 14.3269 49.6731 0 32 0C14.3269 0 0 14.3269 0 32C0 49.6731 14.3269 64 32 64Z" fill="url(#paint0_linear_261_39782)"/>
<path d="M51.0333 26.7775H47.2317C45.1069 21.0175 39.5773 16.9087 33.0749 16.9087H19.8781V26.7775H15.6797V30.2335H19.8781V33.9327H15.6797V37.3887H19.8781V47.0911H33.0749C39.5133 47.0911 45.0045 43.0591 47.1677 37.3887H51.0333V33.9327H48.0381C48.1149 33.3055 48.1661 32.6527 48.1661 31.9999C48.1661 31.3983 48.1277 30.8095 48.0637 30.2335H51.0461V26.7775H51.0333ZM23.3341 20.2111H32.9341C37.5293 20.2111 41.4845 22.8991 43.3405 26.7775H23.3341V20.2111ZM32.9341 43.7887H23.3341V37.3887H43.2637C41.3821 41.1775 37.4653 43.7887 32.9341 43.7887ZM44.4669 31.7439V32.2687C44.4669 32.8319 44.4285 33.3951 44.3517 33.9327H23.3341V30.2335H44.3645C44.4285 30.7327 44.4669 31.2319 44.4669 31.7439Z" fill="white"/>
</g>
<defs>
<linearGradient id="paint0_linear_261_39782" x1="9.37258" y1="9.37258" x2="54.6274" y2="54.6274" gradientUnits="userSpaceOnUse">
<stop stop-color="#F9AF1A"/>
<stop offset="1" stop-color="#FBC349"/>
</linearGradient>
<clipPath id="clip0_261_39782">
<rect width="64" height="64" fill="white"/>
</clipPath>
</defs>
</svg>
