<svg width="64" height="64" viewBox="0 0 64 64" fill="none" xmlns="http://www.w3.org/2000/svg">
<g clip-path="url(#clip0_262_1533)">
<path d="M32 63.875C49.6041 63.875 63.875 49.6041 63.875 32C63.875 14.3959 49.6041 0.125 32 0.125C14.3959 0.125 0.125 14.3959 0.125 32C0.125 49.6041 14.3959 63.875 32 63.875Z" fill="white"/>
<path d="M32.0004 61.6311C48.3653 61.6311 61.6316 48.3648 61.6316 31.9999C61.6316 15.635 48.3653 2.36865 32.0004 2.36865C15.6355 2.36865 2.36914 15.635 2.36914 31.9999C2.36914 48.3648 15.6355 61.6311 32.0004 61.6311Z" fill="url(#paint0_linear_262_1533)"/>
<path d="M47.2979 42.0438L43.1729 39.6688C43.1158 39.6363 43.0512 39.619 42.9854 39.6188C42.9512 39.619 42.9172 39.6237 42.8842 39.6325C42.8361 39.6461 42.7912 39.6691 42.7521 39.7002C42.7131 39.7313 42.6806 39.7699 42.6567 39.8138C42.3021 40.4634 41.8615 41.0621 41.3467 41.5938C40.6528 42.3116 39.8572 42.9235 38.9854 43.41C38.1437 43.8768 37.2408 44.2235 36.3029 44.44C35.4213 44.6486 34.5189 44.7568 33.6129 44.7625C32.0165 44.7771 30.4404 44.4035 29.0204 43.6738C27.6564 42.9684 26.4473 41.9972 25.4642 40.8175C24.984 40.2385 24.5573 39.6172 24.1892 38.9613L23.7042 38.1H34.1767C34.2761 38.1 34.3715 38.0605 34.4418 37.9902C34.5122 37.9199 34.5517 37.8245 34.5517 37.725V34.4625C34.5517 34.3631 34.5122 34.2677 34.4418 34.1974C34.3715 34.127 34.2761 34.0875 34.1767 34.0875H22.5392L22.4817 33.5725C22.4198 33.0167 22.3885 32.458 22.3879 31.8988C22.3879 31.43 22.4129 30.9388 22.4629 30.4363L22.5154 29.915H34.1767C34.2761 29.915 34.3715 29.8755 34.4418 29.8052C34.5122 29.7349 34.5517 29.6395 34.5517 29.54V26.2775C34.5517 26.1781 34.5122 26.0827 34.4418 26.0124C34.3715 25.942 34.2761 25.9025 34.1767 25.9025H23.5929L24.0417 25.0538C24.3591 24.4515 24.7253 23.8762 25.1367 23.3338C26.0677 22.1168 27.2472 21.112 28.5967 20.3863C29.9892 19.6263 31.6404 19.24 33.5054 19.24C34.391 19.2438 35.2735 19.3427 36.1379 19.535C37.0423 19.7358 37.9164 20.0543 38.7379 20.4825C40.2767 21.3013 41.5564 22.5334 42.4329 24.04C42.4591 24.0845 42.4941 24.1231 42.5358 24.1534C42.5775 24.1838 42.6251 24.2051 42.6754 24.2163C42.7017 24.2223 42.7285 24.2252 42.7554 24.225C42.8318 24.2252 42.9063 24.2021 42.9692 24.1588L46.8004 21.52C46.8787 21.4661 46.9336 21.3845 46.954 21.2917C46.9744 21.1989 46.9589 21.1018 46.9104 21.02C45.7754 19.1113 44.1529 17.5125 42.0879 16.27C39.7504 14.8638 36.9317 14.145 33.7129 14.145C30.9817 14.145 28.5167 14.66 26.3854 15.675C24.3504 16.6208 22.5219 17.9586 21.0046 19.6119C19.4873 21.2652 18.3109 23.2015 17.5429 25.31C17.5304 25.3413 17.5204 25.3725 17.5104 25.4038V25.4125C17.5004 25.445 17.4892 25.4775 17.4767 25.51L17.3392 25.895H9.28418C9.18472 25.895 9.08934 25.9345 9.01902 26.0049C8.94869 26.0752 8.90918 26.1706 8.90918 26.27V29.5325C8.90918 29.632 8.94869 29.7274 9.01902 29.7977C9.08934 29.868 9.18472 29.9075 9.28418 29.9075H16.4567L16.4154 30.5238C16.3867 30.9675 16.3729 31.3375 16.3729 31.6863C16.3729 32.2675 16.4029 32.8588 16.4604 33.4438L16.5229 34.08H9.28418C9.18472 34.08 9.08934 34.1195 9.01902 34.1899C8.94869 34.2602 8.90918 34.3556 8.90918 34.455V37.7175C8.90918 37.817 8.94869 37.9124 9.01902 37.9827C9.08934 38.053 9.18472 38.0925 9.28418 38.0925H17.5542L17.7004 38.4575C18.5196 40.5335 19.6928 42.4515 21.1679 44.1263C22.6834 45.8354 24.51 47.2408 26.5504 48.2675C28.6067 49.3125 30.9129 49.8425 33.4029 49.8425C34.8753 49.8353 36.3416 49.6519 37.7704 49.2963C39.2281 48.9436 40.6361 48.4103 41.9617 47.7088C43.2418 47.0305 44.42 46.1755 45.4617 45.1688C46.2556 44.4036 46.9234 43.5176 47.4404 42.5438C47.4859 42.4582 47.4965 42.3583 47.4699 42.2651C47.4433 42.1718 47.3817 42.0925 47.2979 42.0438Z" fill="white"/>
</g>
<defs>
<linearGradient id="paint0_linear_262_1533" x1="17.1829" y1="6.3349" x2="46.8179" y2="57.6649" gradientUnits="userSpaceOnUse">
<stop stop-color="#0095D7"/>
<stop offset="1" stop-color="#0072AA"/>
</linearGradient>
<clipPath id="clip0_262_1533">
<rect width="64" height="64" fill="white"/>
</clipPath>
</defs>
</svg>
