<svg width="64" height="64" viewBox="0 0 64 64" fill="none" xmlns="http://www.w3.org/2000/svg">
<g clip-path="url(#clip0_265_1645)">
<path d="M15.9997 21.3374H10.6621V26.675H15.9997V21.3374Z" fill="#FED955"/>
<path d="M15.9997 32H10.6621V37.3376H15.9997V32Z" fill="#FED955"/>
<path d="M15.9997 26.6626H10.6621V32.0002H15.9997V26.6626Z" fill="#FED955"/>
<path d="M15.9997 37.3374H10.6621V42.675H15.9997V37.3374Z" fill="#FED955"/>
<path d="M37.3376 10.6626H32V16.0002H37.3376V10.6626Z" fill="#FED955"/>
<path d="M37.3376 48H32V53.3376H37.3376V48Z" fill="#FED955"/>
<path d="M42.6755 10.6626H37.3379V16.0002H42.6755V10.6626Z" fill="#FED955"/>
<path d="M47.9997 10.6626H42.6621V16.0002H47.9997V10.6626Z" fill="#9695F8"/>
<path d="M21.3376 10.6626H16V16.0002H21.3376V10.6626Z" fill="#9695F8"/>
<path d="M53.3376 42.6626H48V48.0002H53.3376V42.6626Z" fill="#9695F8"/>
<path d="M15.9997 42.6626H10.6621V48.0002H15.9997V42.6626Z" fill="#9695F8"/>
<path d="M42.6755 5.3374H37.3379V10.675H42.6755V5.3374Z" fill="#9695F8"/>
<path d="M42.6755 0H37.3379V5.3376H42.6755V0Z" fill="#5552FD"/>
<path d="M42.6755 58.6626H37.3379V64.0002H42.6755V58.6626Z" fill="#5552FD"/>
<path d="M42.6755 53.3374H37.3379V58.675H42.6755V53.3374Z" fill="#9695F8"/>
<path d="M31.9997 5.3374H26.6621V10.675H31.9997V5.3374Z" fill="#9695F8"/>
<path d="M31.9997 0H26.6621V5.3376H31.9997V0Z" fill="#5552FD"/>
<path d="M31.9997 58.6626H26.6621V64.0002H31.9997V58.6626Z" fill="#5552FD"/>
<path d="M31.9997 53.3374H26.6621V58.675H31.9997V53.3374Z" fill="#9695F8"/>
<path d="M37.3376 5.3374H32V10.675H37.3376V5.3374Z" fill="#9695F8"/>
<path d="M37.3376 0H32V5.3376H37.3376V0Z" fill="#5552FD"/>
<path d="M37.3376 58.6626H32V64.0002H37.3376V58.6626Z" fill="#5552FD"/>
<path d="M37.3376 53.3374H32V58.675H37.3376V53.3374Z" fill="#9695F8"/>
<path d="M26.6755 5.3374H21.3379V10.675H26.6755V5.3374Z" fill="#9695F8"/>
<path d="M26.6755 0H21.3379V5.3376H26.6755V0Z" fill="#5552FD"/>
<path d="M26.6755 58.6626H21.3379V64.0002H26.6755V58.6626Z" fill="#5552FD"/>
<path d="M26.6755 53.3374H21.3379V58.675H26.6755V53.3374Z" fill="#9695F8"/>
<path d="M53.3376 16H48V21.3376H53.3376V16Z" fill="#9695F8"/>
<path d="M15.9997 16H10.6621V21.3376H15.9997V16Z" fill="#9695F8"/>
<path d="M47.9997 48H42.6621V53.3376H47.9997V48Z" fill="#9695F8"/>
<path d="M21.3376 48H16V53.3376H21.3376V48Z" fill="#9695F8"/>
<path d="M58.6755 21.3374H53.3379V26.675H58.6755V21.3374Z" fill="#9695F8"/>
<path d="M10.6755 21.3374H5.33789V26.675H10.6755V21.3374Z" fill="#9695F8"/>
<path d="M5.3376 21.3374H0V26.675H5.3376V21.3374Z" fill="#5552FD"/>
<path d="M10.6755 16H5.33789V21.3376H10.6755V16Z" fill="#5552FD"/>
<path d="M58.6755 16H53.3379V21.3376H58.6755V16Z" fill="#5552FD"/>
<path d="M47.9997 53.3374H42.6621V58.675H47.9997V53.3374Z" fill="#5552FD"/>
<path d="M10.6755 42.6626H5.33789V48.0002H10.6755V42.6626Z" fill="#5552FD"/>
<path d="M15.9997 10.6626H10.6621V16.0002H15.9997V10.6626Z" fill="#5552FD"/>
<path d="M53.3376 10.6626H48V16.0002H53.3376V10.6626Z" fill="#5552FD"/>
<path d="M53.3376 48H48V53.3376H53.3376V48Z" fill="#5552FD"/>
<path d="M15.9997 48H10.6621V53.3376H15.9997V48Z" fill="#5552FD"/>
<path d="M21.3376 5.3374H16V10.675H21.3376V5.3374Z" fill="#5552FD"/>
<path d="M47.9997 5.3374H42.6621V10.675H47.9997V5.3374Z" fill="#5552FD"/>
<path d="M58.6755 42.6626H53.3379V48.0002H58.6755V42.6626Z" fill="#5552FD"/>
<path d="M21.3376 53.3374H16V58.675H21.3376V53.3374Z" fill="#5552FD"/>
<path d="M63.9997 21.3374H58.6621V26.675H63.9997V21.3374Z" fill="#5552FD"/>
<path d="M58.6755 26.6626H53.3379V32.0002H58.6755V26.6626Z" fill="#9695F8"/>
<path d="M10.6755 26.6626H5.33789V32.0002H10.6755V26.6626Z" fill="#9695F8"/>
<path d="M5.3376 26.6626H0V32.0002H5.3376V26.6626Z" fill="#5552FD"/>
<path d="M63.9997 26.6626H58.6621V32.0002H63.9997V26.6626Z" fill="#5552FD"/>
<path d="M58.6755 32H53.3379V37.3376H58.6755V32Z" fill="#9695F8"/>
<path d="M10.6755 32H5.33789V37.3376H10.6755V32Z" fill="#9695F8"/>
<path d="M5.3376 32H0V37.3376H5.3376V32Z" fill="#5552FD"/>
<path d="M63.9997 32H58.6621V37.3376H63.9997V32Z" fill="#5552FD"/>
<path d="M58.6755 37.3374H53.3379V42.675H58.6755V37.3374Z" fill="#9695F8"/>
<path d="M10.6755 37.3374H5.33789V42.675H10.6755V37.3374Z" fill="#9695F8"/>
<path d="M5.3376 37.3374H0V42.675H5.3376V37.3374Z" fill="#5552FD"/>
<path d="M63.9997 37.3374H58.6621V42.675H63.9997V37.3374Z" fill="#5552FD"/>
<path d="M42.6755 48H37.3379V53.3376H42.6755V48Z" fill="#FED955"/>
<path d="M37.3376 21.3374H32V26.675H37.3376V21.3374Z" fill="#FED955"/>
<path d="M37.3376 32H32V37.3376H37.3376V32Z" fill="#FED955"/>
<path d="M37.3376 37.3374H32V42.675H37.3376V37.3374Z" fill="#FED955"/>
<path d="M37.3376 16H32V21.3376H37.3376V16Z" fill="#FED955"/>
<path d="M37.3376 42.6626H32V48.0002H37.3376V42.6626Z" fill="#FED955"/>
<path d="M26.6755 32H21.3379V37.3376H26.6755V32Z" fill="#FED955"/>
<path d="M26.6755 26.6626H21.3379V32.0002H26.6755V26.6626Z" fill="#FED955"/>
<path d="M26.6755 37.3374H21.3379V42.675H26.6755V37.3374Z" fill="#FED955"/>
<path d="M26.6755 16H21.3379V21.3376H26.6755V16Z" fill="#FED955"/>
<path d="M26.6755 42.6626H21.3379V48.0002H26.6755V42.6626Z" fill="#FED955"/>
<path d="M42.6755 32H37.3379V37.3376H42.6755V32Z" fill="#FED955"/>
<path d="M42.6755 26.6626H37.3379V32.0002H42.6755V26.6626Z" fill="#FED955"/>
<path d="M42.6755 37.3374H37.3379V42.675H42.6755V37.3374Z" fill="#FED955"/>
<path d="M42.6755 16H37.3379V21.3376H42.6755V16Z" fill="#FED955"/>
<path d="M42.6755 42.6626H37.3379V48.0002H42.6755V42.6626Z" fill="#FED955"/>
<path d="M31.9997 10.6626H26.6621V16.0002H31.9997V10.6626Z" fill="#FED955"/>
<path d="M31.9997 48H26.6621V53.3376H31.9997V48Z" fill="#FED955"/>
<path d="M26.6755 10.6626H21.3379V16.0002H26.6755V10.6626Z" fill="#FED955"/>
<path d="M26.6755 48H21.3379V53.3376H26.6755V48Z" fill="#FED955"/>
<path d="M31.9997 21.3374H26.6621V26.675H31.9997V21.3374Z" fill="#FED955"/>
<path d="M31.9997 32H26.6621V37.3376H31.9997V32Z" fill="#FED955"/>
<path d="M26.6755 21.3374H21.3379V26.675H26.6755V21.3374Z" fill="#5552FD"/>
<path d="M37.3376 26.6626H32V32.0002H37.3376V26.6626Z" fill="#5552FD"/>
<path d="M47.9997 21.3374H42.6621V26.675H47.9997V21.3374Z" fill="#5552FD"/>
<path d="M47.9997 32H42.6621V37.3376H47.9997V32Z" fill="#5552FD"/>
<path d="M47.9997 26.6626H42.6621V32.0002H47.9997V26.6626Z" fill="#5552FD"/>
<path d="M47.9997 37.3374H42.6621V42.675H47.9997V37.3374Z" fill="#5552FD"/>
<path d="M47.9997 16H42.6621V21.3376H47.9997V16Z" fill="#5552FD"/>
<path d="M47.9997 42.6626H42.6621V48.0002H47.9997V42.6626Z" fill="#5552FD"/>
<path d="M21.3376 21.3374H16V26.675H21.3376V21.3374Z" fill="#5552FD"/>
<path d="M21.3376 32H16V37.3376H21.3376V32Z" fill="#5552FD"/>
<path d="M21.3376 26.6626H16V32.0002H21.3376V26.6626Z" fill="#5552FD"/>
<path d="M21.3376 37.3374H16V42.675H21.3376V37.3374Z" fill="#5552FD"/>
<path d="M21.3376 16H16V21.3376H21.3376V16Z" fill="#5552FD"/>
<path d="M21.3376 42.6626H16V48.0002H21.3376V42.6626Z" fill="#5552FD"/>
<path d="M42.6755 21.3374H37.3379V26.675H42.6755V21.3374Z" fill="#5552FD"/>
<path d="M31.9997 26.6626H26.6621V32.0002H31.9997V26.6626Z" fill="#5552FD"/>
<path d="M31.9997 37.3374H26.6621V42.675H31.9997V37.3374Z" fill="#FED955"/>
<path d="M31.9997 16H26.6621V21.3376H31.9997V16Z" fill="#FED955"/>
<path d="M31.9997 42.6626H26.6621V48.0002H31.9997V42.6626Z" fill="#FED955"/>
<path d="M53.3376 21.3374H48V26.675H53.3376V21.3374Z" fill="#FED955"/>
<path d="M53.3376 32H48V37.3376H53.3376V32Z" fill="#FED955"/>
<path d="M53.3376 26.6626H48V32.0002H53.3376V26.6626Z" fill="#FED955"/>
<path d="M53.3376 37.3374H48V42.675H53.3376V37.3374Z" fill="#FED955"/>
</g>
<defs>
<clipPath id="clip0_265_1645">
<rect width="64" height="64" fill="white"/>
</clipPath>
</defs>
</svg>
