<svg xmlns="http://www.w3.org/2000/svg" width="41" height="40" viewBox="0 0 41 40" fill="none" data-astro-cid-ccbiqatb=""><path d="M20.5047 24.3034C22.8785 24.3034 24.8031 22.3789 24.8031 20.0049C24.8031 17.631 22.8785 15.7065 20.5047 15.7065C18.1308 15.7065 16.2062 17.631 16.2062 20.0049C16.2062 22.3789 18.1308 24.3034 20.5047 24.3034Z" fill="black" data-astro-cid-ccbiqatb=""></path><path fill-rule="evenodd" clip-rule="evenodd" d="M23.7727 7.42804C22.8834 8.16524 21.7415 8.60835 20.4963 8.60835C19.2571 8.60835 18.1205 8.16969 17.2331 7.43912C16.2917 6.66414 14.7814 6.33428 13.9114 7.1886C11.8188 9.24346 9.74328 11.3191 7.68825 13.4117C6.83411 14.2816 7.16388 15.792 7.93894 16.7333C8.66934 17.6207 9.10808 18.7574 9.10808 19.9965C9.10808 21.2418 8.66497 22.3837 7.92786 23.273C7.1496 24.2118 6.81496 25.721 7.66844 26.5917C9.72145 28.6862 11.8022 30.7566 13.8956 32.8109C14.7684 33.6674 16.2861 33.3348 17.2296 32.5567C18.1175 31.8245 19.2554 31.3847 20.4963 31.3847C21.7431 31.3847 22.8864 31.8289 23.7763 32.5678C24.7171 33.3492 26.2335 33.6867 27.1071 32.8309C29.2023 30.7788 31.2785 28.7027 33.3306 26.6075C34.1865 25.7338 33.849 24.2174 33.0675 23.2766C32.3286 22.3868 31.8843 21.2435 31.8843 19.9965C31.8843 18.7557 32.3242 17.6177 33.0564 16.7298C33.8345 15.7863 34.1672 14.2688 33.3107 13.3959C31.2565 11.3024 29.186 9.22163 27.0914 7.1687C26.2206 6.31514 24.7114 6.64995 23.7727 7.42804ZM18.0861 11.1668C19.4237 9.82921 21.5922 9.82921 22.9298 11.1668L29.362 17.599C30.6995 18.9365 30.6995 21.1051 29.362 22.4426L22.9298 28.8749C21.5922 30.2124 19.4237 30.2124 18.0861 28.8749L11.6539 22.4426C10.3164 21.1051 10.3164 18.9365 11.6539 17.599L18.0861 11.1668Z" fill="black" data-astro-cid-ccbiqatb=""></path></svg>