<svg width="64" height="64" viewBox="0 0 64 64" fill="none" xmlns="http://www.w3.org/2000/svg">
<path fill-rule="evenodd" clip-rule="evenodd" d="M11.7123 4.44176L0.05151 28.9538C-0.03809 29.1458 0.000309982 29.3634 0.15391 29.5042L31.6675 59.6994C31.8595 59.8786 32.1411 59.8786 32.3331 59.6994L63.8467 29.5042C64.0003 29.3634 64.0387 29.133 63.9491 28.9538L52.2883 4.44176C52.2115 4.27536 52.0451 4.16016 51.8531 4.16016H12.1475C11.9683 4.16016 11.8019 4.26256 11.7123 4.44176Z" fill="#50AF95"/>
<path fill-rule="evenodd" clip-rule="evenodd" d="M36.0446 31.4625C35.8142 31.4753 34.6494 31.5521 32.0382 31.5521C29.9646 31.5521 28.4926 31.4881 27.9806 31.4625C19.9678 31.1041 13.9774 29.7089 13.9774 28.0449C13.9774 26.3681 19.955 24.9857 27.9806 24.6273V30.0801C28.5054 30.1185 30.003 30.2081 32.0766 30.2081C34.5598 30.2081 35.8142 30.1057 36.0318 30.0801V24.6273C44.0318 24.9857 49.9966 26.3809 49.9966 28.0449C49.9966 29.7089 44.0446 31.1041 36.0446 31.4625ZM36.0446 24.0641V19.1873H47.2062V11.7505H16.819V19.1873H27.9806V24.0641C18.9054 24.4865 12.083 26.2785 12.083 28.4289C12.083 30.5793 18.9054 32.3713 27.9806 32.7937V48.4225H36.0446V32.7937C45.0942 32.3713 51.9038 30.5793 51.9038 28.4289C51.9038 26.2785 45.107 24.4865 36.0446 24.0641Z" fill="white"/>
</svg>
