<svg width="64" height="64" viewBox="0 0 64 64" fill="none" xmlns="http://www.w3.org/2000/svg">
<g clip-path="url(#clip0_246_39486)">
<mask id="mask0_246_39486" style="mask-type:luminance" maskUnits="userSpaceOnUse" x="0" y="0" width="64" height="64">
<path d="M31.9998 63.3483C49.3131 63.3483 63.3483 49.3131 63.3483 31.9998C63.3483 14.6866 49.3131 0.651367 31.9998 0.651367C14.6866 0.651367 0.651367 14.6866 0.651367 31.9998C0.651367 49.3131 14.6866 63.3483 31.9998 63.3483Z" fill="white"/>
</mask>
<g mask="url(#mask0_246_39486)">
<path d="M66.3162 -2.31689H-2.31738V66.3167H66.3162V-2.31689Z" fill="url(#paint0_linear_246_39486)"/>
</g>
<path d="M41.0666 38.7646L49.9357 33.6433C50.4055 33.372 50.696 32.8676 50.696 32.3249V22.0836C50.696 21.5422 50.4042 21.0366 49.9357 20.7652L41.0666 15.644C40.5968 15.3726 40.0144 15.3739 39.5447 15.644L30.6756 20.7652C30.2058 21.0366 29.9152 21.5422 29.9152 22.0836V40.3864L23.6957 43.9768L17.4762 40.3864V33.2043L23.6957 29.6139L27.7981 31.9819V27.164L24.456 25.235C24.2256 25.1019 23.962 25.0315 23.6944 25.0315C23.4269 25.0315 23.1632 25.1019 22.9341 25.235L14.065 30.3563C13.5952 30.6276 13.3047 31.132 13.3047 31.6747V41.916C13.3047 42.4574 13.5965 42.963 14.065 43.2344L22.9341 48.3556C23.4026 48.6257 23.9863 48.6257 24.456 48.3556L33.3252 43.2356C33.7949 42.9643 34.0855 42.4587 34.0855 41.9172V23.6145L34.1981 23.5505L40.305 20.0241L46.5245 23.6145V30.7966L40.305 34.387L36.209 32.0216V36.8395L39.5447 38.7659C40.0144 39.036 40.5968 39.036 41.0666 38.7659V38.7646Z" fill="white"/>
</g>
<defs>
<linearGradient id="paint0_linear_246_39486" x1="-14.8601" y1="3.32406" x2="55.993" y2="46.6828" gradientUnits="userSpaceOnUse">
<stop stop-color="#A229C5"/>
<stop offset="1" stop-color="#7B3FE4"/>
</linearGradient>
<clipPath id="clip0_246_39486">
<rect width="64" height="64" fill="white"/>
</clipPath>
</defs>
</svg>
