<svg width="64" height="64" viewBox="0 0 64 64" fill="none" xmlns="http://www.w3.org/2000/svg">
<g clip-path="url(#clip0_261_39577)">
<path d="M5.78516 19.4562V44.5442C5.78516 46.157 6.62996 47.6162 8.03796 48.4354L29.7724 60.9794C31.1548 61.773 32.87 61.773 34.2524 60.9794L55.9868 48.4354C57.3692 47.6418 58.2396 46.157 58.2396 44.5442V19.4562C58.2396 17.8434 57.3948 16.3842 55.9868 15.565L34.2524 3.02098C32.87 2.22738 31.1548 2.22738 29.7724 3.02098L8.03796 15.565C6.65556 16.3586 5.81076 17.8434 5.81076 19.4562H5.78516Z" fill="#213147"/>
<path d="M36.7353 36.8637L33.6377 45.3629C33.5609 45.5933 33.5609 45.8493 33.6377 46.1053L38.9625 60.7229L45.1321 57.1645L37.7337 36.8637C37.5545 36.4029 36.9145 36.4029 36.7353 36.8637Z" fill="#12AAFF"/>
<path d="M42.9563 22.579C42.7771 22.1182 42.1371 22.1182 41.9579 22.579L38.8603 31.0782C38.7835 31.3086 38.7835 31.5646 38.8603 31.8206L47.5899 55.7566L53.7595 52.1982L42.9563 22.6046V22.579Z" fill="#12AAFF"/>
<path d="M31.9996 3.968C32.1532 3.968 32.3068 4.0192 32.4348 4.096L55.9356 17.664C56.2172 17.8176 56.3708 18.1248 56.3708 18.432V45.568C56.3708 45.8752 56.1916 46.1824 55.9356 46.336L32.4348 59.904C32.3068 59.9808 32.1532 60.032 31.9996 60.032C31.846 60.032 31.6924 59.9808 31.5644 59.904L8.06357 46.336C7.78197 46.1824 7.62837 45.8752 7.62837 45.568V18.4064C7.62837 18.0992 7.80757 17.792 8.06357 17.6384L31.5644 4.0704C31.6924 3.9936 31.846 3.9424 31.9996 3.9424V3.968ZM31.9996 0C31.1548 0 30.3356 0.2048 29.5676 0.64L6.06677 14.208C4.55637 15.0784 3.63477 16.6656 3.63477 18.4064V45.5424C3.63477 47.2832 4.55637 48.8704 6.06677 49.7408L29.5676 63.3088C30.31 63.744 31.1548 63.9488 31.9996 63.9488C32.8444 63.9488 33.6636 63.744 34.4316 63.3088L57.9324 49.7408C59.4428 48.8704 60.3644 47.2832 60.3644 45.5424V18.4064C60.3644 16.6656 59.4428 15.0784 57.9324 14.208L34.406 0.64C33.6636 0.2048 32.8188 0 31.974 0H31.9996Z" fill="#9DCCED"/>
<path d="M16.4346 55.7825L18.6106 49.8433L22.9626 53.4529L18.8922 57.1905L16.4346 55.7825Z" fill="#213147"/>
<path d="M30.0032 16.4865H24.0384C23.6032 16.4865 23.1936 16.7681 23.04 17.1777L10.2656 52.1985L16.4352 55.7569L30.5152 17.1777C30.6432 16.8193 30.3872 16.4609 30.0288 16.4609L30.0032 16.4865Z" fill="white"/>
<path d="M40.4478 16.4865H34.483C34.0478 16.4865 33.6382 16.7681 33.4846 17.1777L18.8926 57.1649L25.0622 60.7233L40.9342 17.1777C41.0622 16.8193 40.8062 16.4609 40.4478 16.4609V16.4865Z" fill="white"/>
</g>
<defs>
<clipPath id="clip0_261_39577">
<rect width="64" height="64" fill="white"/>
</clipPath>
</defs>
</svg>
