<?xml version="1.0" encoding="utf-8"?>
<!-- Generator: Adobe Illustrator 25.0.1, SVG Export Plug-In . SVG Version: 6.00 Build 0)  -->
<svg version="1.0"
	 id="katman_1" shape-rendering="geometricPrecision" image-rendering="optimizeQuality" text-rendering="geometricPrecision" xmlns:xodm="http://www.corel.com/coreldraw/odm/2003"
	 xmlns="http://www.w3.org/2000/svg" xmlns:xlink="http://www.w3.org/1999/xlink" x="0px" y="0px" viewBox="0 0 1762.7 1261.3"
	 style="enable-background:new 0 0 1762.7 1261.3;" xml:space="preserve">
<style type="text/css">
	.st0{fill:#F5AC37;}
	.st1{fill:#FEFEFD;}
</style>
<g id="Layer_x0020_1">
	<path class="st0" d="M881.3,90.7c298.3,0,540,241.8,540,540c0,298.3-241.7,540-540,540c-298.2,0-540-241.8-540-540
		C341.3,332.5,583.1,90.7,881.3,90.7z"/>
	<path class="st1" d="M901.2,668.8h205.2c4.4,0,6.4,0,6.8-5.7c1.7-20.9,1.7-41.9,0-62.8c0-4.1-2-5.7-6.4-5.7H698.4
		c-5.1,0-6.4,1.7-6.4,6.4V661c0,7.8,0,7.8,8.1,7.8H901.2L901.2,668.8z M1090.3,524.4c0.6-1.5,0.6-3.2,0-4.7
		c-3.4-7.5-7.5-14.6-12.2-21.3c-7.1-11.4-15.5-21.9-25-31.4c-4.5-5.7-9.7-10.8-15.5-15.2c-29.2-24.9-63.9-42.5-101.3-51.3
		c-18.8-4.2-38.1-6.2-57.4-6.1H697.7c-5.1,0-5.7,2-5.7,6.4v119.8c0,5.1,0,6.4,6.4,6.4h389.5c0,0,3.4-0.7,4.1-2.7H1090.3
		L1090.3,524.4z M1090.3,739c-5.7-0.6-11.5-0.6-17.3,0H698.7c-5.1,0-6.8,0-6.8,6.8v117.1c0,5.4,0,6.8,6.8,6.8h172.8
		c8.3,0.6,16.5,0,24.6-1.7c25.1-1.8,49.7-7.2,73.3-16.2c8.6-3,16.8-6.8,24.6-11.5h2.4c40.5-21.1,73.4-54.2,94.2-94.8
		C1090.6,745.5,1092.9,740.4,1090.3,739L1090.3,739z M624.2,930.4v-2v-78.6v-26.7v-79.3c0-4.4,0-5.1-5.4-5.1h-73.2
		c-4.1,0-5.7,0-5.7-5.4v-64.1h78.3c4.4,0,6.1,0,6.1-5.7V600c0-4.1,0-5.1-5.4-5.1h-73.2c-4.1,0-5.7,0-5.7-5.4v-59.4
		c0-3.7,0-4.7,5.4-4.7h72.6c5.1,0,6.4,0,6.4-6.4V337.1c0-5.4,0-6.8,6.8-6.8H884c18.4,0.7,36.6,2.7,54.7,6.1
		c37.2,6.9,72.9,20.2,105.6,39.1c21.7,12.8,41.6,28.2,59.4,45.9c13.4,13.9,25.4,28.9,36.1,44.9c10.6,16.2,19.4,33.5,26.4,51.6
		c0.9,4.7,5.4,7.9,10.1,7.1h60.4c7.8,0,7.8,0,8.1,7.4v55.4c0,5.4-2,6.8-7.4,6.8h-46.6c-4.7,0-6.1,0-5.7,6.1
		c1.8,20.6,1.8,41.2,0,61.7c0,5.7,0,6.4,6.4,6.4h53.3c2.4,3,0,6.1,0,9.1c0.3,3.9,0.3,7.9,0,11.8v40.8c0,5.7-1.7,7.4-6.8,7.4h-63.8
		c-4.4-0.9-8.8,2-9.8,6.4c-15.2,39.5-39.5,74.9-70.9,103.3c-11.5,10.3-23.5,20-36.1,29c-13.5,7.8-26.7,15.9-40.5,22.3
		c-25.5,11.5-52.2,19.9-79.7,25.3c-26,4.7-52.5,6.8-79,6.4H624.1L624.2,930.4L624.2,930.4z"/>
</g>
</svg>
