<?xml version="1.0" encoding="utf-8"?>
<!-- Generator: Adobe Illustrator 25.0.0, SVG Export Plug-In . SVG Version: 6.00 Build 0)  -->
<svg version="1.1" id="Layer_1" xmlns="http://www.w3.org/2000/svg" xmlns:xlink="http://www.w3.org/1999/xlink" x="0px" y="0px"
	 viewBox="0 0 620.3 419.7" style="enable-background:new 0 0 620.3 419.7;" xml:space="preserve">
<style type="text/css">
	.st0{fill-rule:evenodd;clip-rule:evenodd;fill:#50AF95;}
	.st1{fill-rule:evenodd;clip-rule:evenodd;fill:#FFFFFF;}
</style>
<path class="st0" d="M202.6,63.7l-61.9,130c-0.5,1-0.3,2.2,0.5,2.9l167.1,160.2c1,0.9,2.5,0.9,3.5,0l167.2-160.2
	c0.8-0.8,1-1.9,0.5-2.9l-61.9-130c-0.4-0.9-1.3-1.5-2.3-1.5H204.9C203.9,62.2,203,62.8,202.6,63.7C202.6,63.7,202.6,63.7,202.6,63.7
	z"/>
<path class="st1" d="M331.6,207L331.6,207c-1.2,0.1-7.4,0.5-21.2,0.5c-11,0-18.8-0.3-21.5-0.5l0,0c-42.5-1.9-74.2-9.3-74.2-18.1
	c0-8.9,31.7-16.3,74.2-18.1v28.9c2.8,0.2,10.7,0.7,21.7,0.7c13.2,0,19.8-0.6,21-0.7v-28.9c42.4,1.9,74.1,9.3,74.1,18.1
	S374,205.1,331.6,207L331.6,207L331.6,207z M331.6,167.8v-25.9h59.2v-39.4H229.7v39.4h59.2v25.9c-48.1,2.2-84.3,11.7-84.3,23.2
	s36.2,20.9,84.3,23.2V297h42.8v-82.9c48-2.2,84.1-11.7,84.1-23.1S379.7,170,331.6,167.8L331.6,167.8L331.6,167.8z M331.6,167.8
	L331.6,167.8z"/>
</svg>
